<?xml version="1.0" encoding="UTF-8"?>
<svg version="1.1" xmlns="http://www.w3.org/2000/svg" width="610" height="780">
<path d="M0 0 C201.3 0 402.6 0 610 0 C610 257.4 610 514.8 610 780 C408.7 780 207.4 780 0 780 C0 522.6 0 265.2 0 0 Z " fill="#FEFEFE" transform="translate(0,0)"/>
<path d="M0 0 C1.61716404 -0.00898684 3.23432167 -0.0191972 4.85147095 -0.03053284 C9.22773114 -0.05694474 13.60381516 -0.06406261 17.98014736 -0.0659802 C20.71942138 -0.06811804 23.45865114 -0.074533 26.19791412 -0.08247185 C35.76901575 -0.11019747 45.33999235 -0.12248102 54.91113281 -0.12011719 C63.80902438 -0.11831622 72.70636951 -0.14995277 81.60412288 -0.19734818 C89.26303299 -0.23667937 96.92176527 -0.25266449 104.5807755 -0.25075096 C109.14644057 -0.24998898 113.71161977 -0.25837575 118.27718353 -0.29028511 C122.57521238 -0.31950655 126.87229681 -0.31944703 131.17036057 -0.29773521 C132.73919696 -0.2946194 134.30809402 -0.30155653 135.87682724 -0.31981659 C149.26332017 -0.46542532 159.26541791 2.91788135 169.13378906 12.21313477 C174.5517377 18.51745537 177.14363944 25.71777893 177.24494934 33.92842102 C177.25427056 34.59080896 177.26359177 35.2531969 177.27319545 35.9356572 C177.30299028 38.16003474 177.32555261 40.38442274 177.34790039 42.60888672 C177.36726089 44.20236012 177.38688504 45.79583034 177.40675354 47.38929749 C177.58038527 61.96080021 177.67379217 76.53333755 177.74782276 91.10564899 C177.80364187 101.86792594 177.89822189 112.62839775 178.04348069 123.38984615 C178.14228242 130.96624316 178.1946157 138.54214682 178.21367759 146.11915845 C178.2263996 150.63883421 178.25941201 155.15617226 178.34327126 159.67513466 C178.42152107 163.93680857 178.44167844 168.19502995 178.41953087 172.45732689 C178.42121902 174.01095787 178.44305251 175.5647362 178.48786926 177.11772156 C178.77076801 187.46040499 176.78501093 193.25721053 169.62845117 200.88132602 C168.59598011 201.93147606 167.55392362 202.97230927 166.50139081 204.00235116 C164.4660349 206.00418264 162.56500797 208.12121473 160.65332031 210.24047852 C159.37013647 211.60034665 158.0837956 212.95724442 156.79394531 214.31079102 C155.83101563 215.33172852 155.83101563 215.33172852 154.84863281 216.37329102 C151.61727003 219.78633684 148.34219463 223.14194328 144.99707031 226.44360352 C141.75960882 229.66137481 138.73771516 233.00954273 135.75927734 236.46655273 C132.92057464 239.72544485 129.94850372 242.85660638 126.98144531 245.99829102 C125.66229654 247.40050462 124.34328952 248.80285159 123.02441406 250.20532227 C122.36231934 250.90866699 121.70022461 251.61201172 121.01806641 252.33666992 C117.93652539 255.61333201 114.86389101 258.89826665 111.79394531 262.18579102 C110.930354 263.11016968 110.930354 263.11016968 110.04931641 264.05322266 C106.37601363 267.99099904 102.73383616 271.95573717 99.10644531 275.93579102 C95.70803526 279.65762223 92.24633238 283.27050394 88.64941406 286.79907227 C86.88767288 288.59510525 85.24758585 290.46661763 83.60644531 292.37329102 C81.18776752 295.18155449 78.68494849 297.83549695 76.04394531 300.43579102 C73.42353922 303.01588317 70.94071119 305.64682708 68.54394531 308.43579102 C65.52632178 311.94720749 62.31035451 315.18886504 59.01269531 318.43579102 C57.10408076 320.37470104 55.3168398 322.37278653 53.54394531 324.43579102 C51.14717943 327.22475495 48.6643514 329.85569886 46.04394531 332.43579102 C43.44412348 334.99569236 40.98126134 337.60358642 38.60644531 340.37329102 C35.93384168 343.4495373 33.22089494 346.47637645 30.41894531 349.43579102 C29.70480469 350.19891602 28.99066406 350.96204102 28.25488281 351.74829102 C26.04394531 353.43579102 26.04394531 353.43579102 23.41894531 353.77954102 C18.66925688 353.09208611 16.0483975 349.48819562 13.09741211 346.00097656 C8.68609711 340.93142963 3.93434444 336.21297046 -0.83370018 331.48298073 C-2.47185181 329.85777304 -4.10670071 328.22930399 -5.74079895 326.60002136 C-9.20555549 323.14659706 -12.67425963 319.69715513 -16.14355469 316.24829102 C-20.17822466 312.23730277 -24.21121588 308.22465522 -28.24001503 304.20776939 C-29.84433588 302.60989062 -31.4516556 301.01507189 -33.05912781 299.42036438 C-34.04729817 298.43582816 -35.03532751 297.45115036 -36.02319336 296.46630859 C-36.88144211 295.61329666 -37.73969086 294.76028473 -38.62394714 293.88142395 C-40.89410534 291.50075601 -42.92155178 289.01802034 -44.95605469 286.43579102 C-54.63479054 277.22538109 -64.86361164 273.72727941 -78.01367188 273.98461914 C-88.71178156 274.43876397 -97.32518893 276.46412931 -104.95605469 284.43579102 C-111.72677278 293.70098419 -112.62094612 301.06991111 -111.95605469 312.43579102 C-109.20895727 329.22080828 -89.99540033 343.53339356 -78.51394272 354.95306778 C-76.08930843 357.36478999 -73.66794196 359.77975217 -71.24734497 362.19552612 C-66.11140317 367.32011532 -60.97152512 372.44074502 -55.83105469 377.56079102 C-49.86192536 383.50623885 -43.89446484 389.45334219 -37.93121719 395.40468979 C-35.55645183 397.77301778 -33.17867407 400.13829192 -30.80075073 402.50344849 C-29.33397769 403.96658638 -27.86734633 405.42986634 -26.40087891 406.89331055 C-25.74823059 407.54079254 -25.09558228 408.18827454 -24.42315674 408.8553772 C-20.59696696 412.68113141 -16.96528001 416.62492751 -13.43421268 420.7250309 C-10.44267144 424.18731941 -7.22934254 427.42855976 -4.01855469 430.68579102 C-3.35404297 431.37930664 -2.68953125 432.07282227 -2.00488281 432.78735352 C4.34319247 439.21547243 9.8955958 442.92292692 19.11035156 442.98266602 C19.9134375 442.96719727 20.71652344 442.95172852 21.54394531 442.93579102 C22.34703125 442.95125977 23.15011719 442.96672852 23.97753906 442.98266602 C33.42843297 442.92139604 38.94602585 439.01087569 45.44824219 432.43188477 C46.16044922 431.69067383 46.87265625 430.94946289 47.60644531 430.18579102 C48.32251953 429.46004883 49.03859375 428.73430664 49.77636719 427.98657227 C53.82359059 423.8546481 57.7076414 419.61474821 61.4675293 415.2199707 C63.09242005 413.38092755 64.79220775 411.65378187 66.54394531 409.93579102 C68.97784263 407.54525935 71.2575009 405.08532839 73.48144531 402.49829102 C75.9001231 399.69002754 78.40294214 397.03608509 81.04394531 394.43579102 C83.64376715 391.87588967 86.10662929 389.26799561 88.48144531 386.49829102 C91.68474389 382.76962229 95.11055037 379.32639804 98.63769531 375.90454102 C101.27015738 373.20370331 103.72553797 370.38452294 106.19677734 367.53686523 C109.13019689 364.20022651 112.18017521 360.97686683 115.23144531 357.74829102 C116.55344592 356.34370633 117.87505547 354.93875348 119.19628906 353.53344727 C119.84581543 352.8426709 120.4953418 352.15189453 121.16455078 351.44018555 C128.09172356 344.05228109 134.9210078 336.57296748 141.75537109 329.09936523 C145.53217714 324.97712784 149.34857227 320.89263057 153.16894531 316.81079102 C158.53019151 311.07985349 163.81964055 305.29214777 169.04394531 299.43579102 C178.50733369 288.87718228 188.09195568 278.43781042 197.77441406 268.08032227 C203.07390511 262.40975088 208.34617292 256.71462434 213.6015625 251.00317383 C214.57311799 249.94742125 215.5451325 248.89209093 216.51757812 247.8371582 C222.77675184 241.04634929 228.99998941 234.23230313 234.95410156 227.17016602 C235.581875 226.43282227 236.20964844 225.69547852 236.85644531 224.93579102 C237.41976563 224.26547852 237.98308594 223.59516602 238.56347656 222.90454102 C240.04394531 221.43579102 240.04394531 221.43579102 242.04394531 221.43579102 C242.30820312 220.84282227 242.57246094 220.24985352 242.84472656 219.63891602 C244.08764956 217.35550047 245.34796177 215.96152378 247.23144531 214.18579102 C251.60677942 209.9375413 255.66039924 205.42177181 259.46582031 200.65454102 C267.28564057 190.98959463 277.65608816 183.77042563 290.04394531 181.43579102 C306.23084755 180.49265173 317.53921655 184.00005947 330.04394531 194.43579102 C338.08846566 202.91672296 341.2080133 211.37735258 341.17092896 222.99981689 C341.17248895 223.75319611 341.17404894 224.50657533 341.1756562 225.28278422 C341.17963924 227.80288201 341.17648694 230.32291936 341.17333984 232.84301758 C341.17469512 234.65178971 341.17647577 236.46056156 341.1786499 238.26933289 C341.18321043 243.18064837 341.18143998 248.09194285 341.17827082 253.00325871 C341.17573856 258.14668395 341.17808732 263.2901074 341.17965698 268.43353271 C341.1814768 277.07540204 341.17907797 285.71726283 341.17431641 294.35913086 C341.16888103 304.33890922 341.17063193 314.31866713 341.17614281 324.29844499 C341.18068751 332.87271494 341.18131764 341.44697876 341.17870414 350.02124953 C341.17714795 355.13943679 341.17692943 360.25761445 341.18024063 365.37580109 C341.18313879 370.19221765 341.18110797 375.008608 341.17534637 379.82502174 C341.1740289 381.58860798 341.17439562 383.35219644 341.17660904 385.11578178 C341.20403163 409.19378369 341.20403163 409.19378369 333.04394531 420.43579102 C332.62886719 421.03649414 332.21378906 421.63719727 331.78613281 422.25610352 C326.34956399 429.51753459 317.56575988 433.9009132 309.04394531 436.43579102 C304.65099652 436.99011009 300.30706161 437.00040539 295.88330078 436.98168945 C294.60412277 436.99202713 293.32494476 437.00236481 292.00700378 437.01301575 C288.53034637 437.04067204 285.05404621 437.044285 281.57729483 437.04329586 C277.93240113 437.04644268 274.28766422 437.07209733 270.64285278 437.09527588 C263.75478215 437.13570487 256.86680587 437.15614559 249.97863495 437.16924977 C242.13082607 437.18516445 234.28317675 437.22359865 226.43546081 437.26384306 C210.30500164 437.34606248 194.17457638 437.40026647 178.04394531 437.43579102 C178.04036278 438.69751287 178.04036278 438.69751287 178.03670788 439.98472404 C177.97750628 460.47578258 177.90192315 480.966724 177.8082304 501.45765495 C177.76331357 511.3670228 177.72388942 521.27635505 177.69750977 531.18579102 C177.67449638 539.82541777 177.64106105 548.46493145 177.59524375 557.10446846 C177.57135657 561.67671695 177.55259831 566.24885377 177.54633141 570.82116318 C177.54026013 575.13039797 177.5201869 579.43934719 177.4896698 583.74847603 C177.4809222 585.32456157 177.47716015 586.90068448 177.47893715 588.47679329 C177.48973365 602.47932884 175.91809372 612.33920904 165.96972656 622.56860352 C157.70941842 630.38201889 147.91383653 634.67535414 136.42301941 634.69648743 C135.13206863 634.70357224 133.84111786 634.71065704 132.51104736 634.71795654 C131.09777797 634.71566316 129.68450891 634.71315352 128.27124023 634.71044922 C126.76920825 634.71480084 125.26717848 634.71998549 123.76515198 634.72593689 C119.69888387 634.73929138 115.63270893 634.7399094 111.56642318 634.73737359 C108.1645926 634.73630122 104.76278067 634.74119417 101.36095411 634.74597901 C93.33038416 634.75706245 85.299861 634.7575185 77.26928711 634.75146484 C69.00262772 634.7454287 60.73613868 634.75772958 52.46950835 634.77903491 C45.35673225 634.79668804 38.24401019 634.80264633 31.13121301 634.79939717 C26.88991525 634.79758969 22.64873896 634.80016654 18.40746117 634.81411171 C14.41581506 634.82674561 10.4244331 634.82469379 6.43279076 634.81170082 C4.97439482 634.80934734 3.51597997 634.81202529 2.05760574 634.82032394 C-11.28762221 634.89073986 -22.09731677 633.0770935 -31.93261719 623.51391602 C-43.53495266 610.77603281 -44.09738195 597.38619569 -44.16137695 580.93188477 C-44.17096829 579.36421966 -44.18097909 577.79655707 -44.19137573 576.22889709 C-44.21829492 571.99191884 -44.23937437 567.7549296 -44.25937772 563.51791382 C-44.28131785 559.08296735 -44.30866709 554.64805426 -44.33543396 550.21313477 C-44.38525269 541.82337684 -44.43023145 533.43360028 -44.47345632 525.04380608 C-44.52292144 515.48876217 -44.57780504 505.93375177 -44.63313591 496.37874031 C-44.74678977 476.73112179 -44.85366464 457.08347125 -44.95605469 437.43579102 C-46.09132158 437.43635655 -46.09132158 437.43635655 -47.24952316 437.43693352 C-65.70511156 437.44406514 -84.16038395 437.41802218 -102.61587143 437.35551262 C-111.54101395 437.32607435 -120.46591931 437.30767198 -129.39111328 437.31567383 C-137.17458883 437.32262361 -144.957697 437.30843471 -152.74108243 437.26935494 C-156.8586037 437.24940632 -160.97554891 437.23970886 -165.0931015 437.25536728 C-168.97746179 437.26980382 -172.86072713 437.25574421 -176.74494743 437.22083855 C-178.16216273 437.21294109 -179.57947856 437.21500901 -180.9966526 437.22839928 C-192.72316057 437.32972932 -201.58821695 434.61487882 -210.39355469 426.68579102 C-217.43152907 419.04790613 -221.19676754 409.33797175 -221.22348022 399.02398682 C-221.22801134 398.29904361 -221.23254245 397.57410039 -221.23721087 396.82718921 C-221.24982429 394.40922259 -221.24823649 391.99148211 -221.24658203 389.57348633 C-221.25256926 387.83515128 -221.25937526 386.0968189 -221.26693726 384.35848999 C-221.28458623 379.64343393 -221.28929222 374.9284505 -221.29056883 370.2133646 C-221.29199179 367.2647406 -221.29626418 364.31613499 -221.30156326 361.36751556 C-221.32006101 351.07255382 -221.32823433 340.77764383 -221.32666016 330.48266602 C-221.32545934 320.89985754 -221.34655063 311.31727451 -221.37814748 301.73452306 C-221.40433832 293.4965113 -221.41502625 285.25857303 -221.41374934 277.02051997 C-221.41324046 272.10512409 -221.41888224 267.18992854 -221.44010544 262.27457428 C-221.45953474 257.64844558 -221.45958031 253.02270732 -221.44507217 248.39656448 C-221.44298868 246.70434369 -221.44765746 245.01209815 -221.45979309 243.31991959 C-221.51983411 234.36353173 -221.34680346 226.514208 -216.95605469 218.43579102 C-216.39917969 217.40454102 -215.84230469 216.37329102 -215.26855469 215.31079102 C-207.770131 205.98842643 -199.72936614 201.08711896 -187.95605469 199.43579102 C-183.16944441 199.16733423 -178.39510841 199.18244239 -173.60205078 199.20874023 C-172.18187467 199.20930551 -170.76169799 199.20898552 -169.34152222 199.20785522 C-165.51573789 199.20728524 -161.69008093 199.21898165 -157.864326 199.23300314 C-153.85516487 199.24557005 -149.8460003 199.24668567 -145.83682251 199.24905396 C-138.25811061 199.2552513 -130.67945694 199.27163831 -123.10077059 199.29175293 C-114.46709569 199.31416649 -105.83341789 199.32511904 -97.1997211 199.3351438 C-79.45179938 199.35600623 -61.70393173 199.391148 -43.95605469 199.43579102 C-43.96296813 198.13045095 -43.96296813 198.13045095 -43.97002125 196.79874039 C-44.08061401 175.5894339 -44.16326644 154.38017735 -44.21511555 133.17064285 C-44.24085816 122.91370515 -44.27593311 112.65696035 -44.33325195 102.40014648 C-44.38320784 93.45659238 -44.41537434 84.51317804 -44.42649716 75.56948829 C-44.43299533 70.83716761 -44.44818508 66.10524663 -44.48470497 61.3730545 C-44.51885735 56.91113208 -44.52906916 52.44977076 -44.52159309 47.98773003 C-44.5229591 46.3576063 -44.53277651 44.72746214 -44.55208206 43.09745216 C-44.68612332 31.18732296 -43.28515518 20.00292231 -34.68261719 10.95922852 C-23.92884972 1.47061016 -13.87191748 -0.01539887 0 0 Z " fill="#024073" transform="translate(266.9560546875,2.564208984375)"/>
<path d="M0 0 C0.99 0.33 1.98 0.66 3 1 C3.765625 2.8125 3.765625 2.8125 4.25 5 C4.50523437 6.0828125 4.50523437 6.0828125 4.765625 7.1875 C4.88164062 8.0846875 4.88164062 8.0846875 5 9 C4.67 9.33 4.34 9.66 4 10 C3.89095162 12.03728055 3.85308895 14.07837991 3.84178162 16.11854553 C3.83684364 16.76460123 3.83190566 17.41065693 3.82681805 18.07629007 C3.81137214 20.25666787 3.80306339 22.43701607 3.79467773 24.61743164 C3.78510477 26.17421228 3.77509504 27.73099028 3.76467896 29.2877655 C3.73756074 33.52722373 3.71658876 37.76669316 3.69667697 42.00619054 C3.67485992 46.43183659 3.64745036 50.85744781 3.62062073 55.2830658 C3.57063576 63.66951453 3.52571854 72.05598253 3.48259836 80.44246906 C3.43327548 89.98767822 3.37833906 99.53285244 3.32291877 109.07802784 C3.20900967 128.71865271 3.10219017 148.3593109 3 168 C2.67 168 2.34 168 2 168 C0.73811171 160.16377924 0.82526459 152.31921204 0.79467773 144.40429688 C0.78508653 142.82677969 0.77507574 141.24926501 0.76467896 139.67175293 C0.73775835 135.40791593 0.71667966 131.14406802 0.69667697 126.88019371 C0.67473773 122.41722015 0.64738804 117.95427976 0.62062073 113.49133301 C0.5708008 105.04845102 0.52582248 96.60555052 0.48259836 88.16263247 C0.43313427 78.54713035 0.37825029 68.93166154 0.32291877 59.31619167 C0.20926309 39.54415884 0.1023886 19.77209418 0 0 Z " fill="#295C87" transform="translate(222,439)"/>
<path d="M0 0 C7.94957992 -0.22428282 15.27111181 0.04596958 23 2 C18.38916838 3.36280738 13.67101506 3.41845298 8.8984375 3.71875 C6.06316719 3.81894229 6.06316719 3.81894229 4 5 C4.33 4.01 4.66 3.02 5 2 C3.35 1.67 1.7 1.34 0 1 C0 0.67 0 0.34 0 0 Z " fill="#2F618B" transform="translate(557,184)"/>
<path d="M0 0 C1.47193312 2.94386623 0.84936173 5.37390036 0.5625 8.625 C0.46066406 9.81351562 0.35882813 11.00203125 0.25390625 12.2265625 C0.17011719 13.14179688 0.08632812 14.05703125 0 15 C-0.33 15 -0.66 15 -1 15 C-1.33 12.69 -1.66 10.38 -2 8 C-2.33 10.31 -2.66 12.62 -3 15 C-3.33 15 -3.66 15 -4 15 C-4.63019694 4.84682713 -4.63019694 4.84682713 -2 1.3125 C-1.34 0.879375 -0.68 0.44625 0 0 Z " fill="#0F4979" transform="translate(154,299)"/>
<path d="M0 0 C0.33 0.66 0.66 1.32 1 2 C0.67 2.99 0.34 3.98 0 5 C-0.66 5 -1.32 5 -2 5 C-2.33 5.99 -2.66 6.98 -3 8 C-4.87617698 9.84499398 -6.92737609 11.3683599 -9 13 C-9.66 12.67 -10.32 12.34 -11 12 C-10.54109375 11.55269531 -10.0821875 11.10539062 -9.609375 10.64453125 C-6.16447701 7.25029352 -2.92744915 3.86423288 0 0 Z " fill="#205582" transform="translate(432,306)"/>
<path d="M0 0 C0.66 0.66 1.32 1.32 2 2 C-1.63 5.63 -5.26 9.26 -9 13 C-9.66 12.67 -10.32 12.34 -11 12 C-10.54109375 11.55269531 -10.0821875 11.10539062 -9.609375 10.64453125 C-6.16447701 7.25029352 -2.92744915 3.86423288 0 0 Z " fill="#275B86" transform="translate(477,257)"/>
<path d="M0 0 C0.66 0.66 1.32 1.32 2 2 C-1.63 5.63 -5.26 9.26 -9 13 C-9.66 12.67 -10.32 12.34 -11 12 C-10.37351562 11.38511719 -9.74703125 10.77023438 -9.1015625 10.13671875 C-8.28429687 9.32847656 -7.46703125 8.52023438 -6.625 7.6875 C-5.40683594 6.48673828 -5.40683594 6.48673828 -4.1640625 5.26171875 C-1.87395158 2.99990063 -1.87395158 2.99990063 0 0 Z " fill="#275A86" transform="translate(507,224)"/>
<path d="M0 0 C0.66 0.33 1.32 0.66 2 1 C-0.64 3.64 -3.28 6.28 -6 9 C-6.66 8.67 -7.32 8.34 -8 8 C-5.58443874 4.80800833 -3.31996462 2.25283313 0 0 Z " fill="#2A5D88" transform="translate(238,9)"/>
</svg>
